<?xml version="1.0" standalone="no"?>
<!DOCTYPE svg PUBLIC "-//W3C//DTD SVG 20010904//EN"
 "http://www.w3.org/TR/2001/REC-SVG-20010904/DTD/svg10.dtd">
<svg version="1.0" xmlns="http://www.w3.org/2000/svg"
 width="100.000000pt" height="100.000000pt" viewBox="0 0 100.000000 100.000000"
 preserveAspectRatio="xMidYMid meet">
<metadata>
Created by potrace 1.11, written by Peter Selinger 2001-2013
</metadata>
<g transform="translate(0.000000,100.000000) scale(0.100000,-0.100000)"
fill="#000000" stroke="none">
<path d="M815 860 c-14 -16 -15 -22 -5 -35 28 -34 77 -4 53 33 -15 24 -28 24
-48 2z"/>
<path d="M124 749 c-10 -17 13 -36 27 -22 12 12 4 33 -11 33 -5 0 -12 -5 -16
-11z"/>
<path d="M585 746 c-45 -20 -69 -52 -69 -91 l0 -35 -131 0 c-170 0 -165 5
-165 -158 0 -96 3 -124 16 -136 13 -13 46 -16 203 -16 232 0 221 -7 221 138 0
82 3 102 14 102 8 0 18 -4 21 -10 10 -16 51 -12 67 8 22 24 31 114 16 147 -25
54 -125 81 -193 51z m154 -32 c22 -18 31 -35 31 -55 0 -25 -3 -28 -17 -21 -10
5 -58 9 -108 9 l-90 0 70 -6 c41 -4 65 -9 58 -14 -7 -5 -13 -19 -13 -33 0 -16
-6 -24 -17 -24 -10 0 -27 -7 -37 -15 -27 -21 -45 -19 -39 4 3 11 -5 28 -21 44
-62 62 -8 136 101 137 41 0 58 -5 82 -26z m-12 -126 c-3 -7 -5 -2 -5 12 0 14
2 19 5 13 2 -7 2 -19 0 -25z m-179 0 c23 -23 12 -47 -45 -96 l-57 -50 -66 51
c-36 29 -81 64 -100 79 l-35 28 145 0 c100 0 150 -4 158 -12z m-203 -83 c52
-41 97 -75 101 -75 3 0 30 20 58 45 29 25 59 45 65 45 7 0 25 7 41 15 l30 16
0 -107 0 -107 -27 24 c-16 13 -45 39 -65 58 -21 19 -40 32 -43 29 -3 -3 22
-31 56 -62 l62 -56 -184 0 -184 0 65 60 c36 32 60 59 54 60 -6 0 -17 -7 -24
-15 -7 -9 -35 -34 -61 -56 l-49 -41 0 121 c0 67 3 121 6 121 3 0 48 -34 99
-75z"/>
<path d="M598 693 c12 -2 32 -2 45 0 12 2 2 4 -23 4 -25 0 -35 -2 -22 -4z"/>
<path d="M683 693 c9 -2 23 -2 30 0 6 3 -1 5 -18 5 -16 0 -22 -2 -12 -5z"/>
<path d="M570 670 c0 -5 9 -10 20 -10 11 0 20 5 20 10 0 6 -9 10 -20 10 -11 0
-20 -4 -20 -10z"/>
<path d="M630 670 c0 -5 23 -10 50 -10 28 0 50 5 50 10 0 6 -22 10 -50 10 -27
0 -50 -4 -50 -10z"/>
<path d="M598 613 c12 -2 32 -2 45 0 12 2 2 4 -23 4 -25 0 -35 -2 -22 -4z"/>
<path d="M224 179 c-10 -17 13 -36 27 -22 12 12 4 33 -11 33 -5 0 -12 -5 -16
-11z"/>
</g>
</svg>
